:SAMPLES-PER-SECOND 30
:FULLY-SPECIFIED
:DEGREES
1
root  -24.50066664 38.04222167 17.71333349 4.520810127 2.406931639 1.552220106
lowerback  12.60289955 0.2780089974 1.18366015
upperback  2.980560064 0.7350900173 4.517449856
thorax  -3.98190999 0.3661940098 3.954999924
lowerneck  -13.88689995 7.579979897 -1.362020016
upperneck  19.01420021 12.10400009 -6.048989773
head  8.534799576 5.019509792 -0.4005040526
lclavicle  0 -5.34481991e-014 2.981770104e-014
lhumerus  -31.40029907 1.579300165 88.22109985
lradius  0.003583191894 6.643666666e-007 37.6189003
lwrist  -1.645157397e-007 -3.533851896e-007 -0.4506949484
lhand  -5.505032044e-031 -15.8135004 33.60620117
lfingers  90 7.125020027 -90
lthumb  93.41605384 18.01962653 79.07819387
rclavicle  0 -5.34481991e-014 2.981770104e-014
rhumerus  -37.89350128 -21.86109734 -68.82630157
rradius  -1.296506525e-006 2.359789448e-007 35.75429916
rwrist  -2.281664457e-008 -8.593936229e-009 14.74020004
rhand  -1.345748685e-031 10.2737999 9.996669769
rfingers  -90 -7.125020027 -90
rthumb  -72.52445805 -22.91766803 -51.04506765
rfemur  -26.13790131 -4.279129505 24.48579979
rtibia  9.670418422e-007 1.119611625e-006 49.2684021
rfoot  2.556521167e-006 -21.26499939 -6.251550198
rtoes  2.336001174 19.8686595 -96.84438506
lfemur  -30.15770149 0.6104079485 -21.06019783
ltibia  -3.641206786e-005 2.004581745e-007 58.68600464
lfoot  -5.693161143e-007 -17.24680328 -2.77256012
ltoes  -5.298979543 -19.31302686 -105.6655569
2
root  -24.51311096 38.05644418 17.89188836 4.564899921 2.500879288 1.372650146
lowerback  12.80410004 0.4295329452 1.454780102
upperback  2.921580076 0.9752810001 4.385590076
thorax  -4.162179947 0.4829230011 3.62322998
lowerneck  -14.06919956 7.506040096 -1.364490032
upperneck  18.95929909 11.98760033 -5.970719814
head  8.54006958 4.969940186 -0.3820870221
lclavicle  0 -5.34481991e-014 2.981770104e-014
lhumerus  -31.82360077 1.37601006 88.02330017
lradius  0.003583191894 6.643666666e-007 37.57419968
lwrist  -1.645157397e-007 -3.533851896e-007 -0.2727850974
lhand  -5.505032044e-031 -15.8135004 33.60620117
lfingers  90 7.125020027 -90
lthumb  93.41605384 18.01962653 79.07819387
rclavicle  0 -5.34481991e-014 2.981770104e-014
rhumerus  -37.75460052 -21.7682991 -69.08750153
rradius  -1.296506525e-006 2.359789448e-007 35.93989944
rwrist  -2.281664457e-008 -8.593936229e-009 14.38070011
rhand  -1.345748685e-031 10.2737999 9.996669769
rfingers  -90 -7.125020027 -90
rthumb  -72.52445805 -22.91766803 -51.04506765
rfemur  -25.68640137 -4.075730324 24.71699905
rtibia  9.670418422e-007 1.119611625e-006 48.87559891
rfoot  2.556521167e-006 -21.42839813 -6.521339417
rtoes  2.336001174 19.8686595 -96.84438506
lfemur  -31.24970245 0.5374019742 -20.9117012
ltibia  -3.641206786e-005 2.004581745e-007 57.51279831
lfoot  -5.693161143e-007 -17.92179871 -2.444370747
ltoes  -5.298979543 -19.31302686 -105.6655569
3
root  -24.52333405 38.09688899 18.09317822 4.565869808 2.481601477 1.25425005
lowerback  12.86069965 0.5750640631 1.579629898
upperback  2.987240076 1.177649975 4.272709846
thorax  -4.130080223 0.5807830095 3.399300098
lowerneck  -14.22049999 7.498139858 -1.520560026
upperneck  18.80240059 11.96049976 -5.781589985
head  8.490409851 4.968860149 -0.2968239784
lclavicle  0 -5.34481991e-014 2.981770104e-014
lhumerus  -31.99559975 1.357960105 87.7940979
lradius  0.003583191894 6.643666666e-007 37.31299973
lwrist  -1.645157397e-007 -3.533851896e-007 -0.2061439008
lhand  -5.505032044e-031 -15.8135004 33.60620117
lfingers  90 7.125020027 -90
lthumb  93.41605384 18.01962653 79.07819387
rclavicle  0 -5.34481991e-014 2.981770104e-014
rhumerus  -37.49909973 -21.66909981 -69.31739807
rradius  -1.296506525e-006 2.359789448e-007 36.01179886
rwrist  -2.281664457e-008 -8.593936229e-009 14.19369984
rhand  -1.345748685e-031 10.2737999 9.996669769
rfingers  -90 -7.125020027 -90
rthumb  -72.52445805 -22.91766803 -51.04506765
rfemur  -25.08180237 -3.880139828 24.86790276
rtibia  9.670418422e-007 1.119611625e-006 48.42730331
rfoot  2.556521167e-006 -21.72699928 -6.7603302
rtoes  2.336001174 19.8686595 -96.84438506
lfemur  -32.05670547 0.5688561797 -20.86839676
ltibia  -3.641206786e-005 2.004581745e-007 56.13660812
lfoot  -5.693161143e-007 -17.73090363 -2.156590223
ltoes  -5.298979543 -19.31302686 -105.6655569
4
root  -24.52133359 38.15111175 18.31157714 4.522019863 2.498490572 1.046800137
lowerback  12.89649963 0.6720690727 1.821169972
upperback  3.05072999 1.332720041 4.205220222
thorax  -4.083429813 0.6545259953 3.165220022
lowerneck  -14.26980019 7.538370132 -1.53531003
upperneck  18.55150032 11.99810028 -5.783120155
head  8.414279938 4.995739937 -0.2933300436
lclavicle  0 -5.34481991e-014 2.981770104e-014
lhumerus  -32.01330185 1.585270047 87.56639862
lradius  0.003583191894 6.643666666e-007 36.78760147
lwrist  -1.645157397e-007 -3.533851896e-007 -0.4168269038
lhand  -5.505032044e-031 -15.8135004 33.60620117
lfingers  90 7.125020027 -90
lthumb  93.41605384 18.01962653 79.07819387
rclavicle  0 -5.34481991e-014 2.981770104e-014
rhumerus  -37.26570129 -21.63299751 -69.45960236
rradius  -1.296506525e-006 2.359789448e-007 36.08179855
rwrist  -2.281664457e-008 -8.593936229e-009 14.29850006
rhand  -1.345748685e-031 10.2737999 9.996669769
rfingers  -90 -7.125020027 -90
rthumb  -72.52445805 -22.91766803 -51.04506765
rfemur  -24.32700539 -3.7991395 25.08150101
rtibia  9.670418422e-007 1.119611625e-006 47.90260696
rfoot  2.556521167e-006 -21.93050194 -6.923620701
rtoes  2.336001174 19.8686595 -96.84438506
lfemur  -32.70090866 0.4906981885 -20.74469757
ltibia  -3.641206786e-005 2.004581745e-007 54.55971146
lfoot  -5.693161143e-007 -16.70970535 -2.041341543
ltoes  -5.298979543 -19.31302686 -105.6655569
5
root  -24.50800017 38.19577675 18.52413388 4.581530094 2.636499166 1.03377974
lowerback  12.87839985 0.7222439647 1.954849958
upperback  3.039910078 1.41000998 4.074649811
thorax  -4.081639767 0.6911159754 2.938940048
lowerneck  -14.48120022 7.530990124 -1.630210042
upperneck  18.46549988 11.99400043 -5.708350182
head  8.412110329 4.99309063 -0.248065874
lclavicle  0 -5.34481991e-014 2.981770104e-014
lhumerus  -32.30130005 1.89534986 87.31880188
lradius  0.003583191894 6.643666666e-007 36.5766983
lwrist  -1.645157397e-007 -3.533851896e-007 -0.7348149419
lhand  -5.505032044e-031 -15.8135004 33.60620117
lfingers  90 7.125020027 -90
lthumb  93.41605384 18.01962653 79.07819387
rclavicle  0 -5.34481991e-014 2.981770104e-014
rhumerus  -37.11449814 -21.45030212 -69.64849854
rradius  -1.296506525e-006 2.359789448e-007 36.29700089
rwrist  -2.281664457e-008 -8.593936229e-009 14.28180027
rhand  -1.345748685e-031 10.2737999 9.996669769
rfingers  -90 -7.125020027 -90
rthumb  -72.52445805 -22.91766803 -51.04506765
rfemur  -23.70480728 -3.880640745 25.07770348
rtibia  9.670418422e-007 1.119611625e-006 47.34441376
rfoot  2.556521167e-006 -21.99960709 -7.096970081
rtoes  2.336001174 19.8686595 -96.84438506
lfemur  -33.32631302 0.234557718 -20.84989166
ltibia  -3.641206786e-005 2.004581745e-007 52.7851181
lfoot  -5.693161143e-007 -15.51900768 -1.883330464
ltoes  -5.298979543 -19.31302686 -105.6655569
6
root  -24.50088891 38.22422178 18.73302159 4.734320164 2.804570436 1.0158602
lowerback  12.85480022 0.7849000692 2.06456995
upperback  2.883320093 1.506489992 3.927769899
thorax  -4.230010033 0.7372210026 2.706110001
lowerneck  -14.43970013 7.467840195 -1.674579978
upperneck  18.48880005 11.89480019 -5.602980137
head  8.400010109 4.954269886 -0.2203200161
lclavicle  0 -5.34481991e-014 2.981770104e-014
lhumerus  -32.81259918 2.217109919 87.01059723
lradius  0.003583191894 6.643666666e-007 36.34000015
lwrist  -1.645157397e-007 -3.533851896e-007 -1.087030292
lhand  -5.505032044e-031 -15.8135004 33.60620117
lfingers  90 7.125020027 -90
lthumb  93.41605384 18.01962653 79.07819387
rclavicle  0 -5.34481991e-014 2.981770104e-014
rhumerus  -37.19499969 -21.24180031 -69.79329681
rradius  -1.296506525e-006 2.359789448e-007 36.55739975
rwrist  -2.281664457e-008 -8.593936229e-009 14.1942997
rhand  -1.345748685e-031 10.2737999 9.996669769
rfingers  -90 -7.125020027 -90
rthumb  -72.52445805 -22.91766803 -51.04506765
rfemur  -23.21109962 -3.91187048 25.10370064
rtibia  9.670418422e-007 1.119611625e-006 46.74300003
rfoot  2.556521167e-006 -21.9885006 -7.282169342
rtoes  2.336001174 19.8686595 -96.84438506
lfemur  -33.94960022 -0.06594717503 -20.94079971
ltibia  -3.641206786e-005 2.004581745e-007 50.86259842
lfoot  -5.693161143e-007 -14.54889965 -1.485739946
ltoes  -5.298979543 -19.31302686 -105.6655569
7
root  -24.49688949 38.28733249 18.93746684 4.980730057 2.836721659 0.9109530449
lowerback  12.84860039 0.9442639947 2.208389997
upperback  2.699569941 1.738489985 3.811130047
thorax  -4.419499874 0.8490419984 2.463320017
lowerneck  -14.40810013 7.419569969 -1.556010008
upperneck  18.59690094 11.81760025 -5.630949974
head  8.437970161 4.919219971 -0.255826056
lclavicle  0 -5.34481991e-014 2.981770104e-014
lhumerus  -33.0760994 2.439189911 86.77020264
lradius  0.003583191894 6.643666666e-007 35.81919861
lwrist  -1.645157397e-007 -3.533851896e-007 -1.226149917
lhand  -5.505032044e-031 -15.8135004 33.60620117
lfingers  90 7.125020027 -90
lthumb  93.41605384 18.01962653 79.07819387
rclavicle  0 -5.34481991e-014 2.981770104e-014
rhumerus  -37.21149826 -21.17369843 -69.85679626
rradius  -1.296506525e-006 2.359789448e-007 36.77320099
rwrist  -2.281664457e-008 -8.593936229e-009 14.04599953
rhand  -1.345748685e-031 10.2737999 9.996669769
rfingers  -90 -7.125020027 -90
rthumb  -72.52445805 -22.91766803 -51.04506765
rfemur  -22.79640579 -3.780450344 25.22570038
rtibia  9.670418422e-007 1.119611625e-006 46.12230682
rfoot  2.556521167e-006 -21.91010094 -7.416360855
rtoes  2.336001174 19.8686595 -96.84438506
lfemur  -34.75260544 -0.1673949361 -20.95979881
ltibia  -3.641206786e-005 2.004581745e-007 48.80300903
lfoot  -5.693161143e-007 -13.88270187 -1.154570699
ltoes  -5.298979543 -19.31302686 -105.6655569
